<?xml version="1.0" encoding="UTF-8"?><svg id="a" xmlns="http://www.w3.org/2000/svg" xmlns:xlink="http://www.w3.org/1999/xlink" viewBox="0 0 1442 68"><defs><style>.c{fill:#533996;}.d{clip-rule:evenodd;fill:none;}.e{clip-path:url(#b);}</style><clipPath id="b"><path class="d" d="M344.6,52.62c-56.72,1.18-136.44,3.13-192.25,2.07-11.83-.22-23.5-3.77-34.33-3.14-1.88,.11-1.5,3.46-3.73,3.93-8.77,1.87-31.57-.16-49.48,1.03-22.22,1.48-44.3,4.99-57.13-.74,5.35,2.39-7.31-5.95-5.79-3.73,.85,1.24-3.24-27.48,1.28-30.84,8.59-6.4,19.73,3.9,22.8-2.4-1.67,3.42-18,2.1-15.34-5.46,2.01-5.72,14.48-2.4,22.76-4.33,13.08-3.05,5.67-1.59-13.4-3.58-8.11-.84-18.87,.36-7.65-1.76C32.03-.06,47.07,2.99,54.2,2.81c16.94-.45,40.55-2.48,76.12-1.58,43.49,1.09,97.14,2.68,140.98,4.77,24.73,1.18,52.16-.92,76.16,.34,11.76,.62,25.75-3.55,36.12-2.68,2.45,.21,5.39,3.84,7.69,3.69,2.65-.17-1.98-2.8,7.54-4.01,5.95-.75,9.03,.87,13.36,1.65-12.16-2.19-13.84,1.48-13.28,2.2,4.03,5.2,58.44-3.15,62.76-3.23,21.32-.42,55.59,4.38,81.91,2.15,6.64-.56,9.93-2.24,15.19-2.24,4.51,0,9.58,3.3,13.4,3.58,14.33,1.01,26.15-4.66,41.83-2.8,2.94,.35,4.87,4.27,13.44,5.5,24.43,3.5,51.14,1,80.01,2.19,35.67,1.47,81.61,2.21,123.82,3.2,83.94,1.99,159.03-1.27,241.88,4.61,12.28,.87,24.38,5.24,36.28,5.02,35.56-.65,73.84,1.68,110.45,1.56,23.34-.08,46.37-3.12,68.51-1.43,3.39,.26,6.07,3.12,9.59,3.65,11.8,1.77,37.61,.36,49.52,.9,7.35,.33,12.67-4.29,24.73-.52,11,3.43-24.25,2.57-18.99,2.32-69.52,3.33-143.34,3.69-205.6,.42-24.25-1.28-51.37,2.38-79.93,1.66-49.38-1.24-103.07-5.21-154.34-6.43-68.61-1.62-121.01,1.5-182.77-.06-22.45-.56-83.83-4.03-83.85-4.03-15.87-.67-42.92-2.37-62.88-2.55-9.52-.08-29.62,1.44-7.53,4.01,21.83,2.54,.54-.92,11.42-.24,47.42,2.97,112.52,6.94,163.9,8.15,87.23,2.06,198.44,.01,276.1,1.97,51.65,1.3,100.07,1.5,156.21,4.46,41.85,2.2,95.69-2.93,157.99-1.36,16.59,.42,66.01,1.97,87.58,.1,5.41-.47,21.56,1.73,.08,3.85-50.38,4.97-81.6-.23-135.16,.88-20.38,.42-65.46,1.4-37.98,4.64,19.39,2.29,1.88,.04,28.54-.59,45.46-1.08,102.87,3.64,148.56,2.69,25.33-.53-21.47,2.46-28.51,2.52-14.12,.1-23.76,.88-30.45,.63,5.19,.19-6.89-1.86-5.74-1.81-10.94-.51-52.42,.31-64.67,3.27-3.23,.78-19,1.28-5.75-1.8,20.46-4.77-12.35,.03-17.13,.35-9.05,.61-18.75-.17-24.74,.52-11.32,1.3-21.88,5.89-34.18,4.56-4.02-.43-9.37-4.47-15.34-5.46-20.05-3.33-51.24,.02-70.45-.46-8.68-.22-31.15-1.36-28.55,.6-.25-.19,17.73,1.2,17.17,1.57-8.63,5.63-18.53-1.56-34.34-3.13-7.9-.8-22.8-.63-22.8,2.4,0-.04,5.33-.08,5.71-.12-8,.84-17.66-.36-30.49-1.29-4.69-.34-10.21-1.96-13.36-1.65-4.23,.41-9.14,4.28-13.25,4.12-3.45-.13-10.1-5.5-19.15-5.38-.4,0-6.08,1.73-7.57,2.08-24.7,5.76,40.74,4.72,45.79,4.83,18.17,.38,40.81,.24,59.03,.7,25.35,.63,42.68-.28,60.94,.66,3.16,.16,17.57,3.42,22.92,3.38,4.58-.04,17.22-2.37,18.99-2.32,9.07,.23,12.11,3.58,22.91,3.38,21.92-.41,51.26-3.47,74.18-3.47,47.97,0,86.34,1.38,125.72,3.16,10.51,.47,14.91,.51,1.94,1.89-19.22,2.03-44.66,.06-59.03-.7-41.33-2.17-88.32,4.83-135.08,4.74-26.61-.06-52.08-3.83-76.24-4.2-18.5-.28-34.96,0-51.42-.85-22.02-1.16-53.83,5.24-68.48,3.35,.44,.06-2.04-3.56-7.69-3.69-147.58-3.53-287.87-3.22-411.41-8.78,10.14,1.88,2.13-5.9,0,0-66.93-2.5-164.05-2.37-268.45-.2m626.56,.2c-4.39,.28,16.3,3.5,9.43-2.05-.61-.49-20.97-2.63-26.59-3.19-9.45-.93-23.46-2.23-32.24-1.21,0,0-18.31,6.97-20.76,4.14,4.36,5.05,37.02,2.71,43.64,2.84,12.67,.26,14.85,.2,26.52-.53m224.77-6.02c12.43,.32,27.96,3,43.74-.85,17.53-4.29-13.47-1.25-17.16-1.48-28.79-1.8-76.56-3.11-100.91-3.46-5.54-.08-17.39,.37-20.88,2.22-13.65,7.22,28.06,2.73,36.21,2.91,13.52,.3,34.36,.02,58.99,.66m-457.54,1.72c-2.59-.13-.74-3.1,1.87-1.92-4.24-1.91-21.32-3.42-28.61-3.18-9.29,.32-2.9,3.13-7.53,3.91-16.59,2.78-30.88-7.14-61.02-6.28-9.75,.28-23.66,1.12-30.43,.62-3.73-.27-51.09,1.17-24.69,2.38,24.64,1.13,2.85-1.04,17.12-.35,10.74,.52,102.62,7.07,135.28,8.52,20.96,.94,44.05-3.9,55.12-3,7.22,.59-3.96,3.23,7.69,3.6,10.64,.34,17.74,.15,30.43-.62,30.95-1.87-16.27-4.49-24.84-5.14-22.51-5.43-47.58,2.54-70.38,1.43m131.73,.6c-.86,.89,3.26,2.3,3.76,1.78,.86-.89-3.26-2.29-3.76-1.78m169.49-5.26c1.97,.07,82.76,.98,43.78-2.78-17.43-1.68-37.58,.54-59.1-.69-74.12-4.21-151.53-2.44-221.18-4.95-23.89-.86-58.83-.92-80.09-2.15-13.37-.78-41.45,.04-22.82,2.36,80.24,9.95,170.51,2.7,255.51,6.14,27.81,1.12,56.35,1.17,83.9,2.07m-297.5,.39c-.95,.83,4.83,2.35,5.79,1.51,.95-.83-4.83-2.35-5.79-1.51m-175-2c-.95,.83,4.83,2.35,5.79,1.51,.95-.83-4.83-2.35-5.79-1.51m-167.21,2.14c9.16-.95,8.61-.54-5.78-2.15-9.33-1.04-54.69,1.65-15.26,2.67-.06,0,11.74,.44,21.03-.52m20.26-1.3c-2.64,3.06,29.33-2.73,30.85-.66-2.34-3.21-27.27-3.48-30.85,.66m36.2-.03c6.76,6.08,62.73,.94,72.5,.39,1.91-.11,17.88-1.44,17.12-2.12-3.58-3.22-13.23,.43-19.07,.37-13.08-.15-19.19,1.07-36.23,.7,3.32,.07-38.92-3.48-34.32,.66m98.65-2.82s8.92,2.51,10,1.54c.1-.09-6.13-5.01-10-1.54m156.39-2.62c-.77,.82,1.2-1.28,0,0m425-11c-.77,.82,1.2-1.28,0,0m-796.39,14.62s8.92,2.51,10,1.54c.1-.09-6.13-5.01-10-1.54m303.01-10.35c.3,.27,4.04,3.24,5.7,1.64,2.33-2.25-10.28-5.72-5.7-1.64m19.38-.27c-.77,.82,1.2-1.28,0,0m-34.28-1.5c-.86,.89,3.26,2.3,3.76,1.77,.86-.89-3.26-2.3-3.76-1.77m-262.73-1.5c-.77,.82,1.2-1.28,0,0m66-2c-.77,.82,1.2-1.28,0,0m11.61-.38s8.92,2.51,10,1.54c.09-.08-6.13-5.01-10-1.54m-148.64,1.36c.25,.17,3.86,3.72,5.49,1.87,1.7-1.94-10.88-5.57-5.49-1.87m34.77-.88c-2.32,2.28,29.85,1.11,14.9-.29,.27,.03-13.44-1.15-14.9,.29m128.76-2.05c2.07,.32,3.35,.63,9.63-.19,3.72-.49,28.19-3.71,9.59-1.96-6.15,.58-35.55-.37-19.22,2.15m-43.28-1.65c.4,.11,8.15,2.25,7.34-.14-.92-2.7-15.82-2.33-7.34,.14m-74.5,.46c4.54-.2,3.35,6.68,9.47,1.73,6.17-5-57.69-13.49-7.62-3.69-1.74-.34-36.88,.57-20.71,2.36,7.46,.83,7.31,.11,18.86-.4m29-1.23c-.95,.83,4.83,2.35,5.79,1.51,.95-.83-4.83-2.35-5.79-1.51m-89.97,.25c-2.46,3.34,30.78,.16,7.63-.21-1.12-.01-6.93-.74-7.63,.21m30.26-.87c-.77,.82,1.2-1.28,0,0m249.72-14.5c-.86,.9,3.26,2.29,3.76,1.78,.86-.89-3.26-2.29-3.76-1.78M50.13,4.48c-2.46,3.34,30.78,.17,7.63-.21-1.12-.01-6.93-.74-7.63,.21"/></clipPath></defs><g class="e"><rect class="c" width="1442" height="68"/></g></svg>