<?xml version="1.0" encoding="UTF-8"?>
<svg width="1200pt" height="1200pt" version="1.1" viewBox="0 0 1200 1200" xmlns="http://www.w3.org/2000/svg">
 <path d="m1096.1 314.52-719.04-52.078-12-70.922c-4.7578-27.934-19.25-53.277-40.906-71.551s-49.078-28.293-77.414-28.289h-138.72c-17.148 0-32.996 9.1484-41.57 24-8.5742 14.852-8.5742 33.148 0 48 8.5742 14.852 24.422 24 41.57 24h139.2c5.7188-0.082032 11.277 1.8789 15.68 5.5312 4.3984 3.6523 7.3477 8.7539 8.3203 14.391l87 510.12v1.9219-0.003906c0 6.2578 1.2227 12.453 3.6016 18.238l17.762 104.4-0.003906 0.003906c-31.824 17.395-55.781 46.312-66.961 80.816-11.176 34.504-8.7227 71.977 6.8555 104.73 15.582 32.754 43.105 58.301 76.926 71.398 33.82 13.098 71.371 12.758 104.95-0.95703 33.574-13.715 60.629-39.758 75.609-72.789 14.977-33.031 16.746-70.543 4.9414-104.84h273c-12.996 38.133-9.1484 79.996 10.582 115.12 19.73 35.125 53.48 60.195 92.809 68.938s80.52 0.33203 113.27-23.125c32.754-23.461 53.977-59.75 58.359-99.801 4.3828-40.047-8.4883-80.07-35.391-110.06-26.906-29.988-65.305-47.109-105.59-47.078h-516l-9.7227-56.641h393.96c49.992-0.027344 98.594-16.484 138.32-46.84 39.723-30.359 68.367-72.93 81.523-121.16l61.801-225.12c3.5977-13.773 0.89844-28.438-7.3789-40.027-8.2734-11.586-21.262-18.902-35.461-19.973zm-603.48 651.96c0 12.125-4.8203 23.754-13.395 32.328-8.5742 8.5742-20.203 13.391-32.328 13.391s-23.754-4.8164-32.328-13.391c-8.5742-8.5742-13.391-20.203-13.391-32.328s4.8164-23.754 13.391-32.328c8.5742-8.5742 20.203-13.391 32.328-13.391 12.117 0.03125 23.727 4.8555 32.297 13.426 8.5664 8.5664 13.391 20.176 13.426 32.293zm496.32 45.719c-12.129 0-23.758-4.8164-32.332-13.391-8.5742-8.5742-13.391-20.203-13.391-32.328s4.8164-23.754 13.391-32.328c8.5742-8.5742 20.203-13.391 32.332-13.391 12.125 0 23.754 4.8164 32.328 13.391 8.5742 8.5742 13.391 20.203 13.391 32.328 0 12.137-4.8125 23.777-13.383 32.371-8.5742 8.5938-20.199 13.438-32.336 13.469zm-4.9219-437.52c-7.5859 27.863-24.102 52.469-47.012 70.047-22.91 17.578-50.953 27.16-79.828 27.273h-410.28l-53.277-312 637.2 46.078z" fill="#fff"/>
</svg>
