<svg xmlns="http://www.w3.org/2000/svg" xmlns:xlink="http://www.w3.org/1999/xlink" version="1.1" x="0px" y="0px" viewBox="0 0 100 100" style="enable-background:new 0 0 100 100;" xml:space="preserve"><g><path d="M12,89.9c2.2,0,4-1.8,4-4c0-6.4,3.1-12.3,8.2-15.9C31.8,64.8,40.7,62,50,62s18.2,2.8,25.8,8.1c4,2.8,6.8,7.1,7.8,11.9H24   c-2.2,0-4,1.8-4,4s1.8,4,4,4h68v-4c0-9-4.4-17.3-11.6-22.4c-5-3.5-10.6-6.1-16.4-7.7c6.2-4.4,10.2-11.6,10.2-19.7   c0-13.3-10.8-24.1-24.1-24.1S25.9,22.9,25.9,36.2c0,8.1,4,15.3,10.2,19.7c-5.8,1.6-11.4,4.2-16.4,7.7C12.4,68.6,8,77,8,85.9   C8,88.2,9.8,89.9,12,89.9z M50,20.1c8.9,0,16.1,7.2,16.1,16.1S58.9,52.3,50,52.3s-16.1-7.2-16.1-16.1S41.1,20.1,50,20.1z"></path></g></svg>