<svg xmlns="http://www.w3.org/2000/svg" data-name="Layer 1" viewBox="0 0 100 100" x="0px" y="0px"><title>138all</title><path d="M91.34,26.21,31.42,21.87l-1-5.91a10,10,0,0,0-9.86-8.32H9a4,4,0,1,0,0,8h11.6a2,2,0,0,1,2,1.66l7.25,42.51c0,.05,0,.11,0,.16a4,4,0,0,0,.3,1.52l1.48,8.7a11.83,11.83,0,1,0,16.86,6.53H71.24a11.81,11.81,0,1,0,11.17-8h-43L38.6,64H71.43A19,19,0,0,0,89.75,50l5.15-18.76a4,4,0,0,0-3.57-5ZM41.05,80.54a3.81,3.81,0,1,1-3.81-3.81A3.82,3.82,0,0,1,41.05,80.54Zm41.36,3.81a3.81,3.81,0,1,1,3.81-3.81A3.82,3.82,0,0,1,82.41,84.36ZM82,47.89A11,11,0,0,1,71.43,56H37.24L32.8,30l53.1,3.84Z"></path></svg>