<svg width="83" height="14" viewBox="0 0 83 14" fill="none" xmlns="http://www.w3.org/2000/svg">
<path d="M7.18451 0.921265L9.23952 5.346L14.1845 5.88683L10.5094 9.16232L11.5106 13.9214L7.18446 11.521L2.85832 13.9214L3.85962 9.16232L0.184509 5.88683L5.1295 5.346L7.18451 0.921265Z" fill="black"/>
<path d="M24.1845 0.921265L26.2395 5.346L31.1845 5.88683L27.5094 9.16232L28.5106 13.9214L24.1845 11.521L19.8583 13.9214L20.8596 9.16232L17.1845 5.88683L22.1295 5.346L24.1845 0.921265Z" fill="black"/>
<path d="M41.1845 1L43.2395 5.42473L48.1845 5.96557L44.5094 9.24105L45.5106 14.0001L41.1845 11.5998L36.8583 14.0001L37.8596 9.24105L34.1845 5.96557L39.1295 5.42473L41.1845 1Z" fill="black"/>
<path d="M58.1845 1L60.2395 5.42473L65.1845 5.96557L61.5094 9.24105L62.5106 14.0001L58.1845 11.5998L53.8583 14.0001L54.8596 9.24105L51.1845 5.96557L56.1295 5.42473L58.1845 1Z" fill="black"/>
<path d="M75.1845 1L77.2395 5.42473L82.1845 5.96557L78.5094 9.24105L79.5106 14.0001L75.1845 11.5998L70.8583 14.0001L71.8596 9.24105L68.1845 5.96557L73.1295 5.42473L75.1845 1Z" fill="black"/>
</svg>
